<?xml version="1.0" encoding="utf-8"?>
<!-- Generator: Adobe Illustrator 22.1.0, SVG Export Plug-In . SVG Version: 6.00 Build 0)  -->
<svg version="1.1" id="Calque_1" xmlns="http://www.w3.org/2000/svg" xmlns:xlink="http://www.w3.org/1999/xlink" x="0px" y="0px"
	 viewBox="0 0 432 432" style="enable-background:new 0 0 432 432;" xml:space="preserve">
<style type="text/css">
	.st0{fill:#FFFFFF;}
</style>
<path class="st0" d="M295.6,187.5c-0.7-12.5-1.6-24.7-4.8-37c7.1,0.3,8.3,1,9-0.3c0-0.9-0.9-1-1.4-1.2c-5.5-0.9-7.1-0.9-8.3-1
	c-3.5-8.5-8.3-20.8-17.5-20.6c-0.2-5,0-7.4-1.9-7.4c-2.4,0-1.9,3.8-1.7,8.3c-3.6,1.2-9.2,6.6-11.8,14.9c-2.8-1.6-4.5-2.9-6.2-2.6
	c-0.9,0.2-1,1-0.3,1.7c1,1,2.8,1.9,5.9,3.5c-0.2,8.5-0.3,16.6-0.7,25.1c-2.9,0-6.1-2.1-6.7-0.3s3.8,2.6,6.6,3.3c0,2.8-0.7,8-0.5,22
	c0,6.6-0.2,12.3-0.5,17.5c-0.7-0.2-1.6-0.3-2.2-0.5c-0.9-0.2-1.6,0.3-1.7,1.2c-0.2,0.9,0.3,1.6,1.2,1.7c0.9,0.2,1.7,0.3,2.6,0.7
	c-1.6,18.5-5.5,27.3-9.3,27.5c-2.1,0-2.9-4-3.3-12.8l5.2-2.1c0.7-0.3,1.2-1.2,0.9-1.9c-0.3-0.7-1.2-1.2-1.9-0.9l-4.2,1.6
	c-0.2-6.6,0-15.4,0-26.5l5-0.9c0.9-0.2,1.4-0.9,1.2-1.7c-0.2-0.9-0.9-1.4-1.7-1.2l-4.5,0.7c0-18.5,0-43.4-1.2-75.1
	c3.3-0.5,4.7-0.5,4.7-1.7c0-1.7-2.6-1.4-4.8-1.4c-2.6-19.4-1.2-11.4-5-30.6c1.7-0.7,4.7-1.7,6.2-2.6c0.9-0.5,0.9-1.9-0.5-2.1
	c-1.2-0.2-2.4,0.2-6.6,1.6c-3.1-10.2-7.6-22.5-18.3-23.9c-0.2-5.7-0.2-5.4-0.3-6.4c-0.3-2.1-3.3-1.9-3.6,0c-0.2,1-0.2,0.7-0.3,6.4
	c-10.7,1.4-15.2,13.7-18.3,23.9c-4.3-1.2-5.5-1.7-6.6-1.6c-1.2,0.2-1.4,1.6-0.5,2.1c1.4,0.9,4.5,1.9,6.2,2.6
	c-3.8,19.4-2.6,11.2-5,30.6c-2.2,0-4.8-0.3-4.8,1.4c0,1.2,1.6,1.2,4.7,1.7c0,9.3,0,18-0.2,25.6l-5.7-0.3c-0.9,0-1.6,0.5-1.6,1.4
	s0.5,1.6,1.4,1.6l5.9,0.3c-0.3,17.3-0.9,30.3-1.6,39.8l-4.7-2.4c-0.7-0.3-1.6-0.2-2.1,0.5c-0.3,0.7-0.2,1.6,0.5,2.1l5.7,3.1
	c-1.9,21.5-5.2,24-9,23.9c-5-0.2-10.4-15.4-10-47.9c0.2-14-0.5-19-0.5-22c2.6-0.7,7.3-1.6,6.6-3.3c-0.7-1.7-3.8,0.3-6.7,0.3
	c-0.2-8.5-0.3-16.8-0.7-25.1c2.9-1.7,4.8-2.6,5.9-3.5c0.7-0.7,0.5-1.6-0.3-1.7c-1.6-0.3-3.5,1-6.2,2.6c-2.6-8.3-8.1-13.5-11.8-14.9
	c0.2-4.5,0.7-8.3-1.7-8.3c-1.7,0-1.7,2.4-1.9,7.4c-9.2-0.2-14,12.1-17.5,20.6c-1.2,0.2-2.8,0.2-8.3,1c-0.7,0.2-1.4,0.3-1.4,1.2
	c0.7,1.4,1.9,0.7,9,0.3c-3.3,12.3-4.2,24.6-4.8,37c-5.5,1.9-6.9,1.9-6.6,3.1c0.3,1.6,2.6,0.5,6.6,0c-0.3,9.9,0,19.4,1.2,29.1
	c-7.8,1.6-8.1,6.1,0.3,3.1c0.5,2.6,2.2,14.2,6.6,27.9l-3.1,0.7c-0.9,0.2-1.4,1-1,1.7c0.2,0.7,0.7,1.2,1.4,1.2c0.2,0,0.2,0,0.3,0
	l3.5-0.7c2.6,7.8,5.9,16.1,10.2,23.5c-1.2,0.7-2.6,1.4-3.8,2.1c-0.7,0.3-1,1.4-0.5,2.1c0.3,0.5,0.7,0.7,1.2,0.7c0.2,0,0.5,0,0.7-0.2
	c1.2-0.7,2.6-1.4,3.8-2.1c6.2,10,14.2,18.7,24.6,22.7c-0.9,1.2-1.7,2.2-2.8,3.3c-0.5,0.7-0.5,1.6,0.2,2.1c0.3,0.2,0.7,0.3,1,0.3
	c0.3,0,0.9-0.2,1.2-0.5c1.2-1.4,2.2-2.8,3.5-4.3c3.6,1,7.6,1.6,11.8,1.4c0.9,13.5,1.2,23.7,1.2,31.7c-7.1,6.6-11.6,15.7-11.6,26.1
	c0,1.4,0.2,2.8,0.3,4.2c-0.2,2.6-0.2,6.1-0.3,10.4c-1.4-2.4-2.2-9-5.4-12.6c-1-1-4.7-2.1-3.5,5.2c2.1,12.8,2.1,11.1,3.5,21.5
	c-2.1-1.2-4.2-6.4-6.2-5.5c-1.2,0.3-1.2,0.7-1.2,12.3c0,6.4,96.9,6.9,96.9,0c0-11.4,0-11.8-1.2-12.3c-2.1-0.7-4.3,4.5-6.2,5.5
	c1.4-10.4,1.4-8.7,3.5-21.5c1.2-7.1-2.4-6.2-3.5-5.2c-3.3,3.6-4.2,10.2-5.4,12.6c-0.2-4.5-0.3-7.8-0.3-10.4c0.2-1.4,0.3-2.8,0.3-4.2
	c0-9.9-4.2-18.9-10.6-25.3c0-2.4,0.2-4.8,0.2-7.4c7.3,0.3,13.7-1.4,19.2-4.5c0.5,0.9,1,1.9,1.6,2.9c0.2,0.5,0.9,0.9,1.4,0.9
	c0.2,0,0.3,0,0.7-0.2c0.7-0.3,1-1.2,0.7-1.9c-0.5-1-1-2.1-1.7-3.1c6.6-4.3,12.1-10.6,16.6-17.6l1.9,1.4c0.3,0.2,0.5,0.3,0.9,0.3
	c0.5,0,0.9-0.2,1.2-0.7c0.5-0.7,0.3-1.6-0.3-2.1l-2.1-1.6c4.8-8.3,8.7-17.5,11.2-26.1l3.8,0.9c0.2,0,0.2,0,0.3,0
	c0.7,0,1.2-0.5,1.4-1.2c0.2-0.9-0.3-1.6-1-1.7l-3.6-0.9c4-13.1,5.7-24,6.2-26.6c8.5,2.9,5.9-0.5,0.3-3.1c1.2-9.5,1.7-19.2,1.2-29.1
	c4,0.5,6.2,1.6,6.6,0C302.3,189.6,301.1,189.4,295.6,187.5z"/>
</svg>
